<svg width="56" height="56" viewBox="0 0 56 56" fill="none" xmlns="http://www.w3.org/2000/svg">
<path d="M28 0C12.537 0 0 12.537 0 28C0 43.463 12.537 56 28 56C43.463 56 56 43.463 56 28C56 12.537 43.463 0 28 0ZM28 51.3333C15.134 51.3333 4.66667 40.866 4.66667 28C4.66667 15.134 15.134 4.66667 28 4.66667C40.866 4.66667 51.3333 15.134 51.3333 28C51.3333 40.866 40.866 51.3333 28 51.3333ZM28 7.46667C16.6763 7.46667 7.46667 16.6763 7.46667 28C7.46667 39.3237 16.6763 48.5333 28 48.5333C39.3237 48.5333 48.5333 39.3237 48.5333 28C48.5333 16.6763 39.3237 7.46667 28 7.46667ZM28 42.5833C26.3923 42.5833 25.0833 41.2767 25.0833 39.6667C25.0833 38.0567 26.3923 36.75 28 36.75C29.6123 36.75 30.9167 38.0567 30.9167 39.6667C30.9167 41.2767 29.6123 42.5833 28 42.5833ZM32.5757 28.7513C30.4663 31.0263 30.366 32.284 30.394 33.8333H25.7157C25.6993 30.3917 25.7623 28.875 29.057 25.7413C30.3917 24.472 31.4463 23.4663 31.3017 21.4923C31.1663 19.614 29.5983 18.6317 28.119 18.6317C26.4647 18.6317 24.5303 19.8613 24.5303 23.3287H19.838C19.838 17.7287 23.128 14.112 28.2147 14.112C30.632 14.112 32.746 14.903 34.167 16.3403C35.497 17.689 36.1853 19.5417 36.1597 21.7023C36.1177 24.9293 34.1553 27.048 32.5757 28.7513V28.7513Z" fill="url(#paint0_linear)"/>
<defs>
<linearGradient id="paint0_linear" x1="28" y1="0" x2="28" y2="56" gradientUnits="userSpaceOnUse">
<stop stop-color="#93085B"/>
<stop offset="1" stop-color="#E19956"/>
</linearGradient>
</defs>
</svg>
